<svg width="20" height="20" viewBox="0 0 20 20" fill="none" xmlns="http://www.w3.org/2000/svg">
<path d="M9.99984 14.1667C10.2359 14.1667 10.434 14.0867 10.594 13.9267C10.7534 13.7672 10.8332 13.5694 10.8332 13.3333V10.8333H13.354C13.5901 10.8333 13.7846 10.7533 13.9373 10.5933C14.0901 10.4339 14.1665 10.2361 14.1665 9.99999C14.1665 9.76388 14.0865 9.56582 13.9265 9.40582C13.7671 9.24638 13.5693 9.16666 13.3332 9.16666H10.8332V6.64582C10.8332 6.40971 10.7534 6.21527 10.594 6.06249C10.434 5.90971 10.2359 5.83332 9.99984 5.83332C9.76373 5.83332 9.56595 5.91305 9.4065 6.07249C9.2465 6.23249 9.1665 6.43055 9.1665 6.66666V9.16666H6.64567C6.40956 9.16666 6.21512 9.24638 6.06234 9.40582C5.90956 9.56582 5.83317 9.76388 5.83317 9.99999C5.83317 10.2361 5.91289 10.4339 6.07234 10.5933C6.23234 10.7533 6.43039 10.8333 6.6665 10.8333H9.1665V13.3542C9.1665 13.5903 9.2465 13.7847 9.4065 13.9375C9.56595 14.0903 9.76373 14.1667 9.99984 14.1667ZM9.99984 18.3333C8.84706 18.3333 7.76373 18.1144 6.74984 17.6767C5.73595 17.2394 4.854 16.6458 4.104 15.8958C3.354 15.1458 2.76039 14.2639 2.32317 13.25C1.88539 12.2361 1.6665 11.1528 1.6665 9.99999C1.6665 8.84721 1.88539 7.76388 2.32317 6.74999C2.76039 5.7361 3.354 4.85416 4.104 4.10416C4.854 3.35416 5.73595 2.76027 6.74984 2.32249C7.76373 1.88527 8.84706 1.66666 9.99984 1.66666C11.1526 1.66666 12.2359 1.88527 13.2498 2.32249C14.2637 2.76027 15.1457 3.35416 15.8957 4.10416C16.6457 4.85416 17.2393 5.7361 17.6765 6.74999C18.1143 7.76388 18.3332 8.84721 18.3332 9.99999C18.3332 11.1528 18.1143 12.2361 17.6765 13.25C17.2393 14.2639 16.6457 15.1458 15.8957 15.8958C15.1457 16.6458 14.2637 17.2394 13.2498 17.6767C12.2359 18.1144 11.1526 18.3333 9.99984 18.3333Z" fill="#2E3038"/>
</svg>
