<svg width="12" height="12" viewBox="0 0 12 12" fill="none" xmlns="http://www.w3.org/2000/svg">
<path d="M8.03026 10.7731C8.17086 10.6324 8.24985 10.4417 8.24985 10.2428C8.24985 10.044 8.17086 9.85323 8.03026 9.71259L4.31776 6.00009L8.03026 2.28759C8.16688 2.14613 8.24247 1.95668 8.24076 1.76003C8.23905 1.56339 8.16018 1.37528 8.02112 1.23622C7.88207 1.09717 7.69396 1.01829 7.49731 1.01658C7.30066 1.01487 7.11121 1.09047 6.96976 1.22709L2.72701 5.46984C2.5864 5.61048 2.50742 5.80121 2.50742 6.00009C2.50742 6.19896 2.5864 6.38969 2.72701 6.53034L6.96976 10.7731C7.1104 10.9137 7.30113 10.9927 7.50001 10.9927C7.69888 10.9927 7.88961 10.9137 8.03026 10.7731V10.7731Z" fill="currentColor"/>
</svg>
