<svg width="20" height="20" viewBox="0 0 20 20" fill="none" xmlns="http://www.w3.org/2000/svg">
<path d="M14.167 3.54167H13.1253V2.5C13.1253 2.33424 13.0595 2.17527 12.9423 2.05806C12.8251 1.94085 12.6661 1.875 12.5003 1.875C12.3346 1.875 12.1756 1.94085 12.0584 2.05806C11.9412 2.17527 11.8753 2.33424 11.8753 2.5V3.54167H8.12533V2.5C8.12533 2.33424 8.05948 2.17527 7.94227 2.05806C7.82506 1.94085 7.66609 1.875 7.50033 1.875C7.33457 1.875 7.17559 1.94085 7.05838 2.05806C6.94117 2.17527 6.87533 2.33424 6.87533 2.5V3.54167H5.83366C5.22587 3.54167 4.64298 3.78311 4.21321 4.21288C3.78343 4.64265 3.54199 5.22555 3.54199 5.83333V15C3.54199 15.6078 3.78343 16.1907 4.21321 16.6205C4.64298 17.0502 5.22587 17.2917 5.83366 17.2917H14.167C14.7748 17.2917 15.3577 17.0502 15.7874 16.6205C16.2172 16.1907 16.4587 15.6078 16.4587 15V5.83333C16.4587 5.22555 16.2172 4.64265 15.7874 4.21288C15.3577 3.78311 14.7748 3.54167 14.167 3.54167ZM5.83366 4.79167H6.87533V5.83333C6.87533 5.99909 6.94117 6.15806 7.05838 6.27527C7.17559 6.39249 7.33457 6.45833 7.50033 6.45833C7.66609 6.45833 7.82506 6.39249 7.94227 6.27527C8.05948 6.15806 8.12533 5.99909 8.12533 5.83333V4.79167H11.8753V5.83333C11.8753 5.99909 11.9412 6.15806 12.0584 6.27527C12.1756 6.39249 12.3346 6.45833 12.5003 6.45833C12.6661 6.45833 12.8251 6.39249 12.9423 6.27527C13.0595 6.15806 13.1253 5.99909 13.1253 5.83333V4.79167H14.167C14.4433 4.79167 14.7082 4.90141 14.9036 5.09676C15.0989 5.29211 15.2087 5.55707 15.2087 5.83333V8.125H4.79199V5.83333C4.79199 5.55707 4.90174 5.29211 5.09709 5.09676C5.29244 4.90141 5.55739 4.79167 5.83366 4.79167ZM14.167 16.0417H5.83366C5.55739 16.0417 5.29244 15.9319 5.09709 15.7366C4.90174 15.5412 4.79199 15.2763 4.79199 15V9.375H15.2087V15C15.2087 15.2763 15.0989 15.5412 14.9036 15.7366C14.7082 15.9319 14.4433 16.0417 14.167 16.0417Z" fill="currentColor"/>
</svg>
