<svg width="32" height="32" viewBox="0 0 32 32" fill="none" xmlns="http://www.w3.org/2000/svg">
<rect width="32" height="32" rx="16" fill="#FDF2F5"/>
<path d="M19.3334 10.8333H18.5V10C18.5 9.86739 18.4474 9.74021 18.3536 9.64645C18.2598 9.55268 18.1326 9.5 18 9.5C17.8674 9.5 17.7403 9.55268 17.6465 9.64645C17.5527 9.74021 17.5 9.86739 17.5 10V10.8333H14.5V10C14.5 9.86739 14.4474 9.74021 14.3536 9.64645C14.2598 9.55268 14.1326 9.5 14 9.5C13.8674 9.5 13.7403 9.55268 13.6465 9.64645C13.5527 9.74021 13.5 9.86739 13.5 10V10.8333H12.6667C12.1805 10.8333 11.7142 11.0265 11.3703 11.3703C11.0265 11.7141 10.8334 12.1804 10.8334 12.6667V20C10.8334 20.4862 11.0265 20.9525 11.3703 21.2964C11.7142 21.6402 12.1805 21.8333 12.6667 21.8333H19.3334C19.8196 21.8333 20.2859 21.6402 20.6297 21.2964C20.9736 20.9525 21.1667 20.4862 21.1667 20V12.6667C21.1667 12.1804 20.9736 11.7141 20.6297 11.3703C20.2859 11.0265 19.8196 10.8333 19.3334 10.8333ZM12.6667 11.8333H13.5V12.6667C13.5 12.7993 13.5527 12.9265 13.6465 13.0202C13.7403 13.114 13.8674 13.1667 14 13.1667C14.1326 13.1667 14.2598 13.114 14.3536 13.0202C14.4474 12.9265 14.5 12.7993 14.5 12.6667V11.8333H17.5V12.6667C17.5 12.7993 17.5527 12.9265 17.6465 13.0202C17.7403 13.114 17.8674 13.1667 18 13.1667C18.1326 13.1667 18.2598 13.114 18.3536 13.0202C18.4474 12.9265 18.5 12.7993 18.5 12.6667V11.8333H19.3334C19.5544 11.8333 19.7664 11.9211 19.9226 12.0774C20.0789 12.2337 20.1667 12.4457 20.1667 12.6667V14.5H11.8334V12.6667C11.8334 12.4457 11.9212 12.2337 12.0775 12.0774C12.2337 11.9211 12.4457 11.8333 12.6667 11.8333ZM19.3334 20.8333H12.6667C12.4457 20.8333 12.2337 20.7455 12.0775 20.5893C11.9212 20.433 11.8334 20.221 11.8334 20V15.5H20.1667V20C20.1667 20.221 20.0789 20.433 19.9226 20.5893C19.7664 20.7455 19.5544 20.8333 19.3334 20.8333Z" fill="#A81038"/>
</svg>
