<svg width="20" height="20" viewBox="0 0 20 20" fill="none" xmlns="http://www.w3.org/2000/svg">
<path d="M12.9167 10C15 10 16.6667 11.6667 16.6667 13.75C16.6667 14.4833 16.4583 15.175 16.0917 15.75L18.6583 18.3333L17.5 19.4917L14.9 16.9333C14.325 17.2917 13.6417 17.5 12.9167 17.5C10.8333 17.5 9.16667 15.8333 9.16667 13.75C9.16667 11.6667 10.8333 10 12.9167 10ZM12.9167 11.6667C12.3641 11.6667 11.8342 11.8862 11.4435 12.2769C11.0528 12.6676 10.8333 13.1975 10.8333 13.75C10.8333 14.3025 11.0528 14.8324 11.4435 15.2231C11.8342 15.6138 12.3641 15.8333 12.9167 15.8333C13.4692 15.8333 13.9991 15.6138 14.3898 15.2231C14.7805 14.8324 15 14.3025 15 13.75C15 13.1975 14.7805 12.6676 14.3898 12.2769C13.9991 11.8862 13.4692 11.6667 12.9167 11.6667ZM15.8333 6.66668H4.16667V15.8333H7.91667C8.175 16.4583 8.55 17.0167 9.00833 17.5H4.16667C3.72464 17.5 3.30072 17.3244 2.98816 17.0119C2.67559 16.6993 2.5 16.2754 2.5 15.8333V4.16668C2.5 3.24168 3.24167 2.50001 4.16667 2.50001H5V0.833344H6.66667V2.50001H13.3333V0.833344H15V2.50001H15.8333C16.2754 2.50001 16.6993 2.6756 17.0118 2.98817C17.3244 3.30073 17.5 3.72465 17.5 4.16668V10.8583C17.0833 10.1833 16.5 9.61668 15.8333 9.16668V6.66668Z" fill="#2E3038"/>
</svg>
