<svg width="20" height="20" viewBox="0 0 20 20" fill="none" xmlns="http://www.w3.org/2000/svg">
<path d="M9.99967 11.1667L5.91634 15.25C5.76356 15.4028 5.56912 15.4792 5.33301 15.4792C5.0969 15.4792 4.90245 15.4028 4.74967 15.25C4.5969 15.0972 4.52051 14.9028 4.52051 14.6667C4.52051 14.4306 4.5969 14.2361 4.74967 14.0833L8.83301 10L4.74967 5.91668C4.5969 5.7639 4.52051 5.56945 4.52051 5.33334C4.52051 5.09723 4.5969 4.90279 4.74967 4.75001C4.90245 4.59723 5.0969 4.52084 5.33301 4.52084C5.56912 4.52084 5.76356 4.59723 5.91634 4.75001L9.99967 8.83334L14.083 4.75001C14.2358 4.59723 14.4302 4.52084 14.6663 4.52084C14.9025 4.52084 15.0969 4.59723 15.2497 4.75001C15.4025 4.90279 15.4788 5.09723 15.4788 5.33334C15.4788 5.56945 15.4025 5.7639 15.2497 5.91668L11.1663 10L15.2497 14.0833C15.4025 14.2361 15.4788 14.4306 15.4788 14.6667C15.4788 14.9028 15.4025 15.0972 15.2497 15.25C15.0969 15.4028 14.9025 15.4792 14.6663 15.4792C14.4302 15.4792 14.2358 15.4028 14.083 15.25L9.99967 11.1667Z" fill="currentColor"/>
</svg>
