<svg width="20" height="20" viewBox="0 0 20 20" fill="none" xmlns="http://www.w3.org/2000/svg">
<path d="M4.99999 15.8333C4.99999 16.2754 5.17558 16.6993 5.48815 17.0118C5.80071 17.3244 6.22463 17.5 6.66666 17.5H13.3333C13.7754 17.5 14.1993 17.3244 14.5118 17.0118C14.8244 16.6993 15 16.2754 15 15.8333V5.83333H4.99999V15.8333ZM7.04999 9.9L8.22499 8.725L9.99999 10.4917L11.7667 8.725L12.9417 9.9L11.175 11.6667L12.9417 13.4333L11.7667 14.6083L9.99999 12.8417L8.23332 14.6083L7.05832 13.4333L8.82499 11.6667L7.04999 9.9ZM12.9167 3.33333L12.0833 2.5H7.91666L7.08332 3.33333H4.16666V5H15.8333V3.33333H12.9167Z" fill="currentColor"/>
</svg>
