<svg width="20" height="20" viewBox="0 0 20 20" fill="none" xmlns="http://www.w3.org/2000/svg">
<path d="M10.0001 18.3333C8.86119 18.3333 7.7848 18.1144 6.77092 17.6767C5.75703 17.2394 4.87175 16.6422 4.11508 15.885C3.35786 15.1283 2.76064 14.2431 2.32341 13.2292C1.88564 12.2153 1.66675 11.1389 1.66675 10C1.66675 8.84722 1.88564 7.7675 2.32341 6.76083C2.76064 5.75361 3.35786 4.87167 4.11508 4.115C4.87175 3.35778 5.75703 2.76028 6.77092 2.3225C7.7848 1.88528 8.86119 1.66667 10.0001 1.66667C11.1529 1.66667 12.2326 1.88528 13.2392 2.3225C14.2465 2.76028 15.1284 3.35778 15.8851 4.115C16.6423 4.87167 17.2395 5.75361 17.6767 6.76083C18.1145 7.7675 18.3334 8.84722 18.3334 10V11.2083C18.3334 12.0278 18.0523 12.7256 17.4901 13.3017C16.9273 13.8783 16.2362 14.1667 15.4167 14.1667C14.9167 14.1667 14.4515 14.0556 14.0209 13.8333C13.5904 13.6111 13.2362 13.3194 12.9584 12.9583C12.5834 13.3333 12.1426 13.6286 11.6359 13.8442C11.1287 14.0592 10.5834 14.1667 10.0001 14.1667C8.8473 14.1667 7.8648 13.7603 7.05258 12.9475C6.2398 12.1353 5.83342 11.1528 5.83342 10C5.83342 8.84722 6.2398 7.86444 7.05258 7.05167C7.8648 6.23944 8.8473 5.83333 10.0001 5.83333C11.1529 5.83333 12.1356 6.23944 12.9484 7.05167C13.7606 7.86444 14.1667 8.84722 14.1667 10V11.2083C14.1667 11.6111 14.2917 11.9269 14.5417 12.1558C14.7917 12.3853 15.0834 12.5 15.4167 12.5C15.7501 12.5 16.0417 12.3853 16.2917 12.1558C16.5417 11.9269 16.6667 11.6111 16.6667 11.2083V10C16.6667 8.18056 16.0104 6.61444 14.6976 5.30167C13.3854 3.98944 11.8195 3.33333 10.0001 3.33333C8.18064 3.33333 6.61453 3.98944 5.30175 5.30167C3.98953 6.61444 3.33341 8.18056 3.33341 10C3.33341 11.8194 3.98953 13.3853 5.30175 14.6975C6.61453 16.0103 8.18064 16.6667 10.0001 16.6667H13.3334C13.5695 16.6667 13.7673 16.7467 13.9267 16.9067C14.0867 17.0661 14.1667 17.2639 14.1667 17.5C14.1667 17.7361 14.0867 17.9339 13.9267 18.0933C13.7673 18.2533 13.5695 18.3333 13.3334 18.3333H10.0001ZM10.0001 12.5C10.6945 12.5 11.2848 12.2569 11.7709 11.7708C12.257 11.2847 12.5001 10.6944 12.5001 10C12.5001 9.30556 12.257 8.71528 11.7709 8.22917C11.2848 7.74306 10.6945 7.5 10.0001 7.5C9.30564 7.5 8.71536 7.74306 8.22925 8.22917C7.74314 8.71528 7.50008 9.30556 7.50008 10C7.50008 10.6944 7.74314 11.2847 8.22925 11.7708C8.71536 12.2569 9.30564 12.5 10.0001 12.5Z" fill="#A81038"/>
</svg>
