<svg width="21" height="20" viewBox="0 0 21 20" fill="none" xmlns="http://www.w3.org/2000/svg">
<path d="M17.0283 5.17968L13.9033 2.05468C13.7843 1.93861 13.6243 1.87406 13.458 1.87499H7.20801C6.87649 1.87499 6.55855 2.00669 6.32412 2.24111C6.0897 2.47553 5.95801 2.79347 5.95801 3.12499V4.37499H4.70801C4.37649 4.37499 4.05854 4.50669 3.82412 4.74111C3.5897 4.97553 3.45801 5.29347 3.45801 5.62499V16.875C3.45801 17.2065 3.5897 17.5245 3.82412 17.7589C4.05854 17.9933 4.37649 18.125 4.70801 18.125H13.458C13.7895 18.125 14.1075 17.9933 14.3419 17.7589C14.5763 17.5245 14.708 17.2065 14.708 16.875V15.625H15.958C16.2895 15.625 16.6075 15.4933 16.8419 15.2589C17.0763 15.0245 17.208 14.7065 17.208 14.375V5.62499C17.2089 5.45871 17.1444 5.29875 17.0283 5.17968ZM13.458 16.875H4.70801V5.62499H10.7002L13.458 8.38281V16.875ZM15.958 14.375H14.708V8.12499C14.7089 7.95871 14.6444 7.79875 14.5283 7.67968L11.4033 4.55468C11.2843 4.43861 11.1243 4.37406 10.958 4.37499H7.20801V3.12499H13.2002L15.958 5.88281V14.375ZM11.583 11.875C11.583 12.0408 11.5172 12.1997 11.4 12.3169C11.2827 12.4341 11.1238 12.5 10.958 12.5H7.20801C7.04225 12.5 6.88328 12.4341 6.76607 12.3169C6.64886 12.1997 6.58301 12.0408 6.58301 11.875C6.58301 11.7092 6.64886 11.5503 6.76607 11.4331C6.88328 11.3158 7.04225 11.25 7.20801 11.25H10.958C11.1238 11.25 11.2827 11.3158 11.4 11.4331C11.5172 11.5503 11.583 11.7092 11.583 11.875ZM11.583 14.375C11.583 14.5408 11.5172 14.6997 11.4 14.8169C11.2827 14.9341 11.1238 15 10.958 15H7.20801C7.04225 15 6.88328 14.9341 6.76607 14.8169C6.64886 14.6997 6.58301 14.5408 6.58301 14.375C6.58301 14.2092 6.64886 14.0503 6.76607 13.9331C6.88328 13.8158 7.04225 13.75 7.20801 13.75H10.958C11.1238 13.75 11.2827 13.8158 11.4 13.9331C11.5172 14.0503 11.583 14.2092 11.583 14.375Z" fill="currentColor"/>
</svg>
