<svg width="21" height="20" viewBox="0 0 21 20" fill="none" xmlns="http://www.w3.org/2000/svg">
<g clip-path="url(#clip0_761_3216)">
<path d="M6.83333 5.83333H4.5C4.36739 5.83333 4.24021 5.88601 4.14645 5.97977C4.05268 6.07354 4 6.20072 4 6.33333V13.6667C4 13.7323 4.01293 13.7973 4.03806 13.858C4.06319 13.9187 4.10002 13.9738 4.14645 14.0202C4.19288 14.0666 4.248 14.1035 4.30866 14.1286C4.36932 14.1537 4.43434 14.1667 4.5 14.1667H6.83333C6.89899 14.1667 6.96401 14.1537 7.02467 14.1286C7.08534 14.1035 7.14046 14.0666 7.18689 14.0202C7.23332 13.9738 7.27015 13.9187 7.29527 13.858C7.3204 13.7973 7.33333 13.7323 7.33333 13.6667V6.33333C7.33333 6.20072 7.28065 6.07354 7.18689 5.97977C7.09312 5.88601 6.96594 5.83333 6.83333 5.83333V5.83333ZM16.8333 5.83333H14.5C14.3674 5.83333 14.2402 5.88601 14.1464 5.97977C14.0527 6.07354 14 6.20072 14 6.33333V13.6667C14 13.7323 14.0129 13.7973 14.0381 13.858C14.0632 13.9187 14.1 13.9738 14.1464 14.0202C14.1929 14.0666 14.248 14.1035 14.3087 14.1286C14.3693 14.1537 14.4343 14.1667 14.5 14.1667H16.8333C16.899 14.1667 16.964 14.1537 17.0247 14.1286C17.0853 14.1035 17.1405 14.0666 17.1869 14.0202C17.2333 13.9738 17.2701 13.9187 17.2953 13.858C17.3204 13.7973 17.3333 13.7323 17.3333 13.6667V6.33333C17.3333 6.20072 17.2807 6.07354 17.1869 5.97977C17.0931 5.88601 16.9659 5.83333 16.8333 5.83333V5.83333Z" stroke="currentColor" stroke-width="1.5" stroke-linecap="round" stroke-linejoin="round"/>
<path d="M7.33333 10H14M1.5 12V8C1.5 7.86739 1.55268 7.74021 1.64645 7.64645C1.74021 7.55268 1.86739 7.5 2 7.5H3.5C3.63261 7.5 3.75978 7.55268 3.85355 7.64645C3.94732 7.74021 4 7.86739 4 8V12C4 12.1326 3.94732 12.2598 3.85355 12.3536C3.75978 12.4473 3.63261 12.5 3.5 12.5H2C1.86739 12.5 1.74021 12.4473 1.64645 12.3536C1.55268 12.2598 1.5 12.1326 1.5 12V12ZM19.8333 12V8C19.8333 7.86739 19.7807 7.74021 19.6869 7.64645C19.5931 7.55268 19.4659 7.5 19.3333 7.5H17.8333C17.7007 7.5 17.5735 7.55268 17.4798 7.64645C17.386 7.74021 17.3333 7.86739 17.3333 8V12C17.3333 12.1326 17.386 12.2598 17.4798 12.3536C17.5735 12.4473 17.7007 12.5 17.8333 12.5H19.3333C19.4659 12.5 19.5931 12.4473 19.6869 12.3536C19.7807 12.2598 19.8333 12.1326 19.8333 12V12Z" stroke="currentColor" stroke-width="1.5" stroke-linecap="round" stroke-linejoin="round"/>
</g>
<defs>
<clipPath id="clip0_761_3216">
<rect width="20" height="20" fill="white" transform="translate(0.666992)"/>
</clipPath>
</defs>
</svg>
