<svg width="32" height="32" viewBox="0 0 32 32" fill="none" xmlns="http://www.w3.org/2000/svg">
<rect width="32" height="32" rx="16" fill="#FDF2F5"/>
<path d="M16 12.3333C16.4421 12.3333 16.866 12.5089 17.1786 12.8215C17.4911 13.134 17.6667 13.558 17.6667 14C17.6667 14.2189 17.6236 14.4356 17.5398 14.6378C17.4561 14.84 17.3333 15.0237 17.1786 15.1785C17.0238 15.3333 16.8401 15.456 16.6378 15.5398C16.4356 15.6236 16.2189 15.6667 16 15.6667C15.558 15.6667 15.1341 15.4911 14.8215 15.1785C14.509 14.8659 14.3334 14.442 14.3334 14C14.3334 13.558 14.509 13.134 14.8215 12.8215C15.1341 12.5089 15.558 12.3333 16 12.3333ZM16 9.33333C17.2377 9.33333 18.4247 9.82499 19.2999 10.7002C20.175 11.5753 20.6667 12.7623 20.6667 14C20.6667 17.5 16 22.6667 16 22.6667C16 22.6667 11.3334 17.5 11.3334 14C11.3334 12.7623 11.825 11.5753 12.7002 10.7002C13.5754 9.82499 14.7624 9.33333 16 9.33333ZM16 10.6667C15.116 10.6667 14.2681 11.0179 13.643 11.643C13.0179 12.2681 12.6667 13.1159 12.6667 14C12.6667 14.6667 12.6667 16 16 20.4733C19.3334 16 19.3334 14.6667 19.3334 14C19.3334 13.1159 18.9822 12.2681 18.3571 11.643C17.7319 11.0179 16.8841 10.6667 16 10.6667Z" fill="#A81038"/>
</svg>
